<svg xmlns="http://www.w3.org/2000/svg" xmlns:xlink="http://www.w3.org/1999/xlink" width="128" zoomAndPan="magnify" viewBox="0 0 96 95.999999" height="128" preserveAspectRatio="xMidYMid meet" version="1.0"><defs><clipPath id="cd3d943bf2"><path d="M 10.578125 9.601562 L 85.578125 9.601562 L 85.578125 86.101562 L 10.578125 86.101562 Z M 10.578125 9.601562 " clip-rule="nonzero"/></clipPath></defs><g clip-path="url(#cd3d943bf2)"><path fill="#ffffff" d="M 80.804688 35.476562 L 79.820312 30.972656 L 79.304688 31.148438 C 78.179688 31.539062 77.195312 32.152344 76.347656 32.984375 C 75.5 33.816406 74.871094 34.789062 74.460938 35.902344 C 74.035156 37.242188 73.996094 38.589844 74.34375 39.949219 L 73.777344 40.640625 C 71.300781 38.589844 68.507812 37.132812 65.410156 36.273438 L 65.410156 25.777344 C 65.410156 22.335938 63.75 20.660156 60.332031 20.660156 L 51.921875 20.660156 C 51.191406 17.640625 49.835938 16.617188 46.671875 16.617188 L 46.347656 16.605469 C 46.085938 16.59375 45.820312 16.601562 45.558594 16.625 C 45.433594 16.652344 45.316406 16.640625 45.199219 16.585938 C 45.160156 16.558594 45.101562 16.460938 45.070312 16.167969 C 45.027344 15.757812 44.949219 15.355469 44.835938 14.960938 C 44.71875 14.5625 44.570312 14.179688 44.390625 13.8125 C 44.210938 13.441406 43.996094 13.089844 43.753906 12.757812 C 43.511719 12.425781 43.242188 12.113281 42.945312 11.828125 C 42.648438 11.542969 42.328125 11.285156 41.988281 11.054688 C 41.644531 10.824219 41.289062 10.625 40.910156 10.457031 C 40.535156 10.289062 40.148438 10.15625 39.746094 10.058594 C 39.347656 9.957031 38.941406 9.894531 38.53125 9.863281 C 38.121094 9.835938 37.710938 9.839844 37.300781 9.882812 C 36.890625 9.925781 36.488281 10.003906 36.089844 10.117188 C 35.695312 10.230469 35.3125 10.375 34.941406 10.554688 C 34.570312 10.734375 34.21875 10.945312 33.882812 11.1875 C 33.550781 11.429688 33.238281 11.695312 32.953125 11.992188 C 32.664062 12.289062 32.40625 12.605469 32.175781 12.945312 C 31.941406 13.289062 31.742188 13.644531 31.574219 14.019531 C 31.402344 14.398438 31.269531 14.785156 31.167969 15.183594 C 31.121094 15.375 31.085938 15.570312 31.058594 15.769531 C 31.011719 16.082031 30.953125 16.5 30.824219 16.585938 C 30.507812 16.699219 30.183594 16.71875 29.851562 16.644531 C 29.660156 16.605469 29.46875 16.597656 29.277344 16.617188 C 26.257812 16.617188 24.804688 17.757812 24.179688 20.660156 L 15.625 20.660156 C 12.390625 20.664062 10.675781 22.382812 10.675781 25.648438 L 10.675781 81.371094 C 10.644531 81.695312 10.652344 82.019531 10.691406 82.34375 C 10.734375 82.667969 10.808594 82.980469 10.921875 83.289062 C 11.03125 83.59375 11.175781 83.886719 11.351562 84.160156 C 11.523438 84.4375 11.726562 84.6875 11.957031 84.921875 C 12.1875 85.152344 12.441406 85.351562 12.71875 85.527344 C 12.992188 85.703125 13.285156 85.847656 13.589844 85.957031 C 13.898438 86.066406 14.210938 86.144531 14.535156 86.1875 C 14.859375 86.226562 15.183594 86.234375 15.507812 86.203125 L 60.4375 86.203125 C 63.695312 86.203125 65.417969 84.488281 65.417969 81.242188 L 65.417969 76.996094 C 66.453125 76.710938 67.457031 76.351562 68.4375 75.917969 C 69.414062 75.480469 70.355469 74.972656 71.257812 74.390625 C 72.15625 73.8125 73.011719 73.167969 73.8125 72.457031 C 74.617188 71.75 75.359375 70.980469 76.046875 70.160156 C 76.730469 69.335938 77.351562 68.464844 77.90625 67.546875 C 78.457031 66.628906 78.9375 65.675781 79.347656 64.683594 C 79.753906 63.691406 80.085938 62.675781 80.335938 61.636719 C 80.589844 60.59375 80.761719 59.539062 80.851562 58.472656 C 80.972656 57.070312 80.960938 55.667969 80.808594 54.269531 C 80.65625 52.867188 80.367188 51.496094 79.949219 50.152344 C 79.527344 48.808594 78.980469 47.519531 78.308594 46.28125 C 77.636719 45.046875 76.851562 43.886719 75.953125 42.804688 L 76.535156 42.316406 C 78.183594 42.632812 79.761719 42.425781 81.273438 41.691406 C 82.246094 41.183594 83.078125 40.5 83.765625 39.644531 C 84.453125 38.785156 84.9375 37.824219 85.21875 36.761719 L 85.34375 36.246094 Z M 27.589844 24.15625 C 27.582031 23.195312 27.582031 22.21875 27.589844 21.253906 C 27.601562 20.347656 27.933594 20.027344 28.828125 20.007812 C 29.472656 19.988281 30.125 19.996094 30.765625 19.996094 L 32.335938 19.996094 C 33.738281 19.976562 34.296875 19.414062 34.332031 18 L 34.34375 17.589844 C 34.335938 17.230469 34.351562 16.867188 34.390625 16.507812 C 34.445312 16.0625 34.574219 15.644531 34.777344 15.246094 C 34.984375 14.847656 35.253906 14.5 35.585938 14.203125 C 35.917969 13.902344 36.292969 13.671875 36.710938 13.507812 C 37.128906 13.347656 37.558594 13.261719 38.007812 13.257812 L 38.035156 13.257812 C 38.488281 13.257812 38.925781 13.339844 39.347656 13.5 C 39.773438 13.660156 40.152344 13.890625 40.492188 14.191406 C 40.828125 14.492188 41.101562 14.84375 41.308594 15.246094 C 41.519531 15.648438 41.648438 16.074219 41.699219 16.523438 C 41.738281 16.863281 41.738281 17.203125 41.75 17.546875 C 41.75 17.769531 41.75 17.984375 41.757812 18.199219 C 41.738281 18.445312 41.769531 18.683594 41.855469 18.914062 C 41.9375 19.144531 42.070312 19.347656 42.246094 19.519531 C 42.417969 19.695312 42.625 19.820312 42.855469 19.902344 C 43.085938 19.988281 43.328125 20.015625 43.570312 19.992188 C 44.242188 20.011719 44.90625 20 45.570312 20 C 46.105469 20 46.640625 20 47.175781 20.011719 C 48.179688 20.019531 48.492188 20.332031 48.503906 21.355469 C 48.503906 22.496094 48.511719 23.636719 48.503906 24.777344 C 48.492188 25.730469 48.171875 26.0625 47.214844 26.0625 C 45.015625 26.070312 42.8125 26.0625 40.597656 26.0625 L 29.03125 26.0625 C 27.863281 26.0625 27.589844 25.78125 27.589844 24.582031 Z M 62.007812 81.328125 C 62.007812 82.515625 61.734375 82.800781 60.554688 82.800781 L 15.539062 82.800781 C 15.109375 82.855469 14.71875 82.757812 14.367188 82.507812 C 14.117188 82.152344 14.023438 81.757812 14.074219 81.328125 L 14.085938 66.59375 C 14.09375 59.5 14.097656 52.40625 14.09375 45.3125 C 14.09375 41.328125 14.09375 37.335938 14.085938 33.335938 L 14.085938 25.601562 C 14.015625 25.144531 14.109375 24.726562 14.367188 24.34375 C 14.757812 24.09375 15.183594 23.996094 15.644531 24.0625 L 24.179688 24.0625 L 24.179688 24.1875 C 24.179688 24.507812 24.179688 24.8125 24.191406 25.113281 C 24.191406 25.398438 24.214844 25.675781 24.269531 25.957031 C 24.324219 26.234375 24.40625 26.503906 24.515625 26.765625 C 24.621094 27.03125 24.753906 27.277344 24.914062 27.515625 C 25.070312 27.75 25.246094 27.96875 25.449219 28.171875 C 25.648438 28.371094 25.863281 28.550781 26.101562 28.710938 C 26.335938 28.871094 26.582031 29.003906 26.84375 29.113281 C 27.105469 29.222656 27.375 29.304688 27.65625 29.363281 C 27.933594 29.417969 28.214844 29.449219 28.496094 29.449219 C 34.683594 29.476562 41.105469 29.476562 47.585938 29.449219 C 47.871094 29.449219 48.152344 29.417969 48.429688 29.363281 C 48.707031 29.308594 48.976562 29.226562 49.242188 29.117188 C 49.503906 29.007812 49.75 28.871094 49.988281 28.714844 C 50.222656 28.554688 50.441406 28.375 50.640625 28.175781 C 50.84375 27.972656 51.019531 27.753906 51.179688 27.519531 C 51.335938 27.28125 51.46875 27.03125 51.578125 26.769531 C 51.683594 26.507812 51.765625 26.234375 51.820312 25.957031 C 51.875 25.679688 51.902344 25.398438 51.902344 25.113281 C 51.914062 24.839844 51.902344 24.558594 51.902344 24.226562 L 51.902344 24.0625 L 60.253906 24.0625 C 61.832031 24.0625 62.007812 24.234375 62.007812 25.777344 L 62.007812 35.617188 C 60.535156 35.449219 59.058594 35.441406 57.585938 35.589844 C 56.109375 35.742188 54.667969 36.042969 53.257812 36.503906 C 51.847656 36.960938 50.5 37.5625 49.21875 38.3125 C 47.9375 39.058594 46.75 39.929688 45.65625 40.933594 L 37.21875 40.933594 C 36.984375 40.925781 36.75 40.9375 36.515625 40.960938 C 36.3125 40.980469 36.117188 41.039062 35.933594 41.128906 C 35.75 41.222656 35.589844 41.34375 35.453125 41.496094 C 35.3125 41.648438 35.207031 41.820312 35.128906 42.011719 C 35.054688 42.203125 35.015625 42.398438 35.011719 42.605469 C 35.011719 42.8125 35.046875 43.007812 35.117188 43.203125 C 35.1875 43.394531 35.289062 43.570312 35.425781 43.722656 C 35.558594 43.878906 35.71875 44.003906 35.898438 44.101562 C 36.082031 44.199219 36.273438 44.257812 36.476562 44.285156 C 36.667969 44.3125 36.859375 44.324219 37.050781 44.324219 L 42.664062 44.324219 C 40.503906 47.359375 39.246094 50.734375 38.894531 54.445312 L 37.199219 54.445312 C 36.960938 54.441406 36.722656 54.453125 36.488281 54.476562 C 36.28125 54.5 36.089844 54.558594 35.90625 54.652344 C 35.722656 54.75 35.5625 54.875 35.425781 55.027344 C 35.289062 55.183594 35.1875 55.355469 35.113281 55.546875 C 35.039062 55.742188 35.003906 55.941406 35.007812 56.148438 C 35.007812 56.351562 35.046875 56.550781 35.121094 56.742188 C 35.195312 56.933594 35.300781 57.109375 35.441406 57.261719 C 35.578125 57.414062 35.738281 57.535156 35.921875 57.628906 C 36.109375 57.722656 36.300781 57.777344 36.507812 57.800781 C 36.644531 57.820312 36.777344 57.828125 36.917969 57.828125 L 38.824219 57.828125 C 39.03125 61.488281 40.113281 64.863281 42.070312 67.960938 L 37.101562 67.960938 C 37.050781 67.960938 36.996094 67.953125 36.9375 67.953125 C 36.652344 67.890625 36.390625 67.945312 36.15625 68.117188 L 36.019531 68.246094 C 35.574219 68.566406 35.25 68.988281 35.054688 69.503906 C 34.953125 69.859375 34.996094 70.199219 35.191406 70.515625 C 35.445312 70.914062 35.800781 71.160156 36.261719 71.257812 C 36.570312 71.320312 36.882812 71.347656 37.199219 71.335938 L 44.75 71.335938 C 45.730469 72.347656 46.800781 73.253906 47.960938 74.050781 C 49.125 74.851562 50.351562 75.527344 51.652344 76.078125 C 52.949219 76.628906 54.285156 77.046875 55.667969 77.328125 C 57.050781 77.609375 58.445312 77.753906 59.855469 77.753906 C 60.574219 77.753906 61.292969 77.714844 62.007812 77.636719 Z M 73.351562 68.507812 C 71.179688 70.976562 68.535156 72.726562 65.417969 73.761719 C 64.308594 74.132812 63.171875 74.386719 62.007812 74.519531 C 61.566406 74.585938 61.121094 74.628906 60.671875 74.648438 C 58.671875 74.753906 56.707031 74.523438 54.785156 73.953125 C 52.863281 73.386719 51.089844 72.511719 49.46875 71.335938 C 48.894531 70.925781 48.351562 70.484375 47.839844 70.007812 C 47.152344 69.371094 46.511719 68.691406 45.917969 67.960938 C 44.746094 66.519531 43.8125 64.933594 43.125 63.203125 C 42.4375 61.476562 42.023438 59.683594 41.886719 57.828125 C 41.855469 57.546875 41.847656 57.253906 41.835938 56.972656 C 41.816406 56.128906 41.855469 55.285156 41.953125 54.445312 C 42.175781 52.546875 42.6875 50.730469 43.5 49 C 44.308594 47.269531 45.371094 45.710938 46.691406 44.324219 C 46.773438 44.21875 46.859375 44.125 46.953125 44.03125 C 48.140625 42.8125 49.472656 41.777344 50.949219 40.933594 C 53.707031 39.347656 56.675781 38.554688 59.855469 38.554688 C 60.574219 38.550781 61.292969 38.597656 62.007812 38.691406 C 63.769531 38.902344 65.457031 39.363281 67.078125 40.082031 C 68.699219 40.800781 70.179688 41.738281 71.519531 42.898438 L 68.203125 46.085938 C 67.332031 45.425781 66.402344 44.863281 65.410156 44.402344 C 64.324219 43.890625 63.191406 43.539062 62.007812 43.347656 C 60.851562 43.160156 59.691406 43.132812 58.527344 43.269531 C 57.953125 43.324219 57.378906 43.414062 56.8125 43.542969 C 56 43.722656 55.210938 43.980469 54.445312 44.3125 C 52.203125 45.296875 50.378906 46.792969 48.980469 48.804688 C 47.753906 50.5 46.976562 52.382812 46.640625 54.445312 C 46.449219 55.570312 46.410156 56.695312 46.523438 57.828125 C 46.691406 59.484375 47.148438 61.054688 47.894531 62.542969 C 48.640625 64.03125 49.625 65.335938 50.851562 66.460938 C 51.449219 67.027344 52.097656 67.523438 52.800781 67.953125 C 54.578125 69.082031 56.519531 69.738281 58.617188 69.921875 C 59.75 70.035156 60.882812 70 62.007812 69.8125 C 64.328125 69.453125 66.402344 68.53125 68.222656 67.046875 C 68.898438 66.5 69.515625 65.894531 70.074219 65.234375 C 70.632812 64.570312 71.121094 63.859375 71.542969 63.097656 C 71.964844 62.339844 72.308594 61.550781 72.578125 60.726562 C 72.84375 59.902344 73.035156 59.058594 73.140625 58.195312 C 73.246094 57.335938 73.269531 56.472656 73.210938 55.609375 C 73.152344 54.742188 73.011719 53.890625 72.785156 53.054688 C 72.5625 52.214844 72.261719 51.40625 71.882812 50.625 C 71.503906 49.847656 71.054688 49.109375 70.535156 48.414062 L 73.730469 45.191406 C 74.414062 46.003906 75.015625 46.871094 75.542969 47.792969 C 76.070312 48.714844 76.511719 49.679688 76.867188 50.679688 C 77.222656 51.679688 77.488281 52.707031 77.660156 53.753906 C 77.828125 54.800781 77.90625 55.859375 77.890625 56.921875 C 77.871094 57.980469 77.761719 59.035156 77.554688 60.078125 C 77.347656 61.117188 77.054688 62.132812 76.664062 63.125 C 76.277344 64.113281 75.804688 65.058594 75.25 65.964844 C 74.691406 66.867188 74.058594 67.71875 73.351562 68.507812 Z M 53.238281 64.453125 C 52.242188 63.613281 51.4375 62.621094 50.824219 61.476562 C 50.207031 60.328125 49.824219 59.109375 49.671875 57.820312 C 49.652344 57.644531 49.632812 57.46875 49.621094 57.28125 C 49.554688 56.328125 49.628906 55.382812 49.835938 54.445312 C 50.226562 52.621094 51.046875 51.015625 52.300781 49.632812 C 53.21875 48.632812 54.292969 47.84375 55.523438 47.269531 C 56.753906 46.699219 58.050781 46.386719 59.40625 46.332031 C 59.570312 46.320312 59.738281 46.320312 59.914062 46.320312 C 60.621094 46.316406 61.316406 46.390625 62.007812 46.542969 C 63.238281 46.789062 64.371094 47.265625 65.410156 47.976562 C 65.621094 48.125 65.828125 48.277344 66.03125 48.445312 L 63.109375 51.367188 C 62.753906 51.179688 62.386719 51.023438 62.007812 50.898438 C 60.496094 50.339844 58.988281 50.355469 57.488281 50.9375 C 56.835938 51.214844 56.25 51.59375 55.730469 52.074219 C 55.210938 52.554688 54.789062 53.109375 54.460938 53.738281 C 54.132812 54.363281 53.917969 55.027344 53.820312 55.726562 C 53.722656 56.429688 53.746094 57.125 53.890625 57.820312 C 54.09375 58.851562 54.539062 59.761719 55.226562 60.558594 C 55.632812 61.03125 56.105469 61.433594 56.636719 61.765625 C 57.167969 62.097656 57.734375 62.339844 58.339844 62.5 C 58.945312 62.65625 59.5625 62.722656 60.1875 62.695312 C 60.8125 62.664062 61.417969 62.542969 62.007812 62.332031 C 62.335938 62.210938 62.652344 62.0625 62.953125 61.882812 C 63.570312 61.464844 64.09375 60.949219 64.515625 60.335938 C 64.941406 59.722656 65.238281 59.050781 65.410156 58.324219 C 65.851562 56.648438 65.714844 55.019531 64.992188 53.441406 L 67.972656 50.488281 C 70.59375 53.371094 71.078125 59.1875 67.757812 63.136719 C 67.078125 63.941406 66.296875 64.636719 65.417969 65.21875 C 64.367188 65.902344 63.230469 66.375 62.007812 66.644531 C 61.550781 66.75 61.089844 66.820312 60.625 66.859375 C 59.28125 66.96875 57.96875 66.816406 56.6875 66.398438 C 55.40625 65.984375 54.257812 65.332031 53.238281 64.449219 Z M 57.417969 54.808594 L 57.59375 54.574219 C 58.140625 53.917969 58.84375 53.59375 59.699219 53.597656 C 59.960938 53.597656 60.222656 53.632812 60.476562 53.695312 L 58.929688 55.351562 C 58.878906 55.40625 58.816406 55.476562 58.746094 55.566406 C 58.746094 55.566406 58.660156 55.675781 58.597656 55.773438 C 58.351562 56.167969 58.285156 56.589844 58.402344 57.039062 C 58.488281 57.296875 58.636719 57.511719 58.839844 57.691406 C 58.914062 57.761719 58.992188 57.828125 59.078125 57.886719 C 59.179688 57.957031 59.285156 58.011719 59.402344 58.050781 C 59.414062 58.054688 59.421875 58.0625 59.4375 58.070312 C 59.453125 58.074219 59.46875 58.070312 59.484375 58.078125 C 59.613281 58.117188 59.746094 58.140625 59.882812 58.144531 C 60.375 58.101562 60.78125 57.890625 61.101562 57.511719 C 61.414062 57.179688 61.714844 56.828125 62.007812 56.5 C 62.09375 56.402344 62.171875 56.3125 62.25 56.214844 L 62.660156 55.804688 C 62.835938 56.3125 62.863281 56.824219 62.746094 57.347656 C 62.628906 57.867188 62.382812 58.320312 62.007812 58.699219 C 61.898438 58.8125 61.78125 58.914062 61.65625 59.011719 C 61.371094 59.222656 61.054688 59.378906 60.714844 59.476562 C 60.375 59.578125 60.027344 59.617188 59.671875 59.597656 C 59.316406 59.574219 58.976562 59.496094 58.648438 59.355469 C 58.320312 59.214844 58.027344 59.023438 57.769531 58.777344 C 57.476562 58.5 57.253906 58.175781 57.097656 57.804688 C 56.890625 57.308594 56.816406 56.796875 56.875 56.261719 C 56.929688 55.730469 57.113281 55.242188 57.417969 54.804688 Z M 79.460938 39.101562 C 78.789062 39.4375 78.101562 39.484375 77.394531 39.238281 C 76.996094 37.570312 77.140625 36.886719 77.921875 36.214844 L 78.367188 38.027344 L 80.230469 38.4375 C 80.019531 38.710938 79.765625 38.933594 79.460938 39.097656 Z M 17.933594 43.8125 C 17.695312 43.570312 17.542969 43.285156 17.472656 42.953125 C 17.40625 42.621094 17.4375 42.296875 17.566406 41.984375 C 17.691406 41.667969 17.894531 41.414062 18.175781 41.222656 C 18.457031 41.03125 18.765625 40.933594 19.105469 40.929688 C 19.597656 40.941406 20.019531 41.125 20.371094 41.472656 C 21.050781 42.15625 21.707031 42.855469 22.386719 43.589844 L 22.992188 44.230469 L 27.953125 38.289062 C 28.175781 38.015625 28.398438 37.742188 28.644531 37.488281 C 28.78125 37.316406 28.945312 37.175781 29.140625 37.070312 C 29.332031 36.964844 29.539062 36.898438 29.761719 36.875 C 29.980469 36.851562 30.195312 36.871094 30.40625 36.933594 C 30.617188 36.996094 30.808594 37.097656 30.980469 37.234375 C 31.347656 37.519531 31.5625 37.894531 31.625 38.355469 C 31.671875 38.851562 31.535156 39.289062 31.214844 39.671875 C 30.4375 40.644531 29.628906 41.609375 28.828125 42.566406 L 26.890625 44.882812 C 26.128906 45.789062 25.371094 46.695312 24.628906 47.613281 C 24.304688 48.078125 23.859375 48.34375 23.292969 48.410156 C 23.265625 48.417969 23.234375 48.421875 23.207031 48.421875 C 22.738281 48.402344 22.339844 48.226562 22.015625 47.886719 C 20.808594 46.734375 19.550781 45.480469 17.933594 43.8125 Z M 31.402344 52.917969 C 31.285156 53.132812 31.144531 53.328125 30.972656 53.503906 L 30.863281 53.628906 C 28.847656 56.054688 26.832031 58.476562 24.8125 60.886719 C 24.453125 61.460938 23.933594 61.800781 23.265625 61.902344 L 23.207031 61.902344 C 22.550781 61.828125 22.015625 61.53125 21.609375 61.015625 C 20.410156 59.824219 19.257812 58.675781 18.109375 57.515625 C 17.910156 57.367188 17.753906 57.183594 17.636719 56.964844 C 17.519531 56.746094 17.453125 56.511719 17.433594 56.265625 C 17.417969 56.019531 17.453125 55.777344 17.542969 55.546875 C 17.628906 55.3125 17.761719 55.109375 17.9375 54.9375 C 18.113281 54.761719 18.316406 54.632812 18.550781 54.546875 C 18.785156 54.460938 19.023438 54.425781 19.269531 54.445312 C 19.519531 54.464844 19.75 54.53125 19.96875 54.652344 C 20.1875 54.769531 20.367188 54.929688 20.515625 55.128906 C 21.148438 55.761719 21.773438 56.40625 22.4375 57.078125 L 23.03125 57.703125 L 28.058594 51.679688 C 28.289062 51.386719 28.535156 51.113281 28.800781 50.851562 C 28.941406 50.695312 29.113281 50.570312 29.304688 50.480469 C 29.5 50.390625 29.703125 50.339844 29.917969 50.332031 C 30.128906 50.324219 30.335938 50.359375 30.535156 50.433594 C 30.734375 50.507812 30.914062 50.617188 31.070312 50.765625 C 31.226562 50.890625 31.355469 51.042969 31.453125 51.214844 C 31.554688 51.390625 31.621094 51.578125 31.648438 51.777344 C 31.679688 51.976562 31.675781 52.171875 31.632812 52.371094 C 31.589844 52.566406 31.511719 52.75 31.402344 52.917969 Z M 31.050781 64.316406 C 31.820312 64.992188 31.800781 66.003906 31.011719 66.96875 C 30.476562 67.621094 29.9375 68.265625 29.402344 68.898438 L 27.503906 71.1875 C 26.578125 72.289062 25.652344 73.398438 24.726562 74.511719 C 24.375 75.027344 23.886719 75.328125 23.265625 75.40625 C 23.242188 75.414062 23.21875 75.417969 23.195312 75.417969 C 22.621094 75.367188 22.148438 75.125 21.773438 74.6875 C 20.535156 73.457031 19.296875 72.230469 18.082031 70.992188 C 17.667969 70.605469 17.457031 70.125 17.445312 69.558594 C 17.460938 69.097656 17.640625 68.710938 17.984375 68.402344 C 18.160156 68.242188 18.359375 68.125 18.585938 68.046875 C 18.808594 67.972656 19.039062 67.945312 19.277344 67.960938 C 19.511719 67.980469 19.738281 68.042969 19.945312 68.15625 C 20.15625 68.265625 20.335938 68.410156 20.488281 68.597656 C 21.140625 69.25 21.773438 69.910156 22.4375 70.601562 L 23.03125 71.226562 L 28.039062 65.214844 C 28.144531 65.078125 28.261719 64.941406 28.378906 64.804688 C 28.757812 64.289062 29.261719 63.984375 29.890625 63.890625 C 30.339844 63.867188 30.726562 64.011719 31.050781 64.316406 Z M 31.050781 64.316406 " fill-opacity="1" fill-rule="nonzero"/></g></svg>