<svg xmlns="http://www.w3.org/2000/svg" xmlns:xlink="http://www.w3.org/1999/xlink" width="128" zoomAndPan="magnify" viewBox="0 0 96 95.999999" height="128" preserveAspectRatio="xMidYMid meet" version="1.0"><defs><clipPath id="106502f507"><path d="M 9.601562 9.601562 L 86.101562 9.601562 L 86.101562 86.101562 L 9.601562 86.101562 Z M 9.601562 9.601562 " clip-rule="nonzero"/></clipPath></defs><g clip-path="url(#106502f507)"><path fill="#ffffff" d="M 84.207031 40.59375 L 77.167969 39.863281 C 76.519531 37.515625 75.550781 35.25 74.417969 33.148438 L 78.867188 27.644531 C 79.675781 26.675781 79.59375 25.21875 78.707031 24.328125 L 71.664062 17.289062 C 70.777344 16.398438 69.320312 16.316406 68.347656 17.125 L 62.84375 21.574219 C 60.742188 20.363281 58.554688 19.472656 56.128906 18.824219 L 55.402344 11.785156 C 55.238281 10.570312 54.1875 9.601562 52.972656 9.601562 L 43.019531 9.601562 C 41.726562 9.601562 40.671875 10.570312 40.59375 11.785156 L 39.863281 18.824219 C 37.515625 19.472656 35.25 20.441406 33.148438 21.574219 L 27.644531 17.125 C 26.675781 16.316406 25.21875 16.398438 24.328125 17.289062 L 17.289062 24.328125 C 16.398438 25.21875 16.316406 26.675781 17.125 27.644531 L 21.574219 33.148438 C 20.363281 35.25 19.472656 37.4375 18.824219 39.863281 L 11.785156 40.59375 C 10.488281 40.753906 9.601562 41.804688 9.601562 43.019531 L 9.601562 52.972656 C 9.601562 54.269531 10.570312 55.320312 11.785156 55.402344 L 18.824219 56.128906 C 19.472656 58.476562 20.441406 60.742188 21.574219 62.84375 L 17.125 68.347656 C 16.316406 69.320312 16.398438 70.777344 17.289062 71.664062 L 24.328125 78.707031 C 25.21875 79.59375 26.675781 79.675781 27.644531 78.867188 L 33.148438 74.417969 C 35.25 75.628906 37.4375 76.519531 39.863281 77.167969 L 40.59375 84.207031 C 40.753906 85.503906 41.804688 86.394531 43.019531 86.394531 L 52.972656 86.394531 C 54.269531 86.394531 55.320312 85.421875 55.402344 84.207031 L 56.128906 77.167969 C 58.476562 76.519531 60.742188 75.550781 62.84375 74.417969 L 68.347656 78.867188 C 69.320312 79.675781 70.777344 79.59375 71.664062 78.707031 L 78.707031 71.664062 C 79.59375 70.777344 79.675781 69.320312 78.867188 68.347656 L 74.417969 62.84375 C 75.628906 60.742188 76.519531 58.554688 77.167969 56.128906 L 84.207031 55.402344 C 85.503906 55.238281 86.394531 54.1875 86.394531 52.972656 L 86.394531 43.101562 C 86.394531 41.804688 85.421875 40.753906 84.207031 40.59375 Z M 47.957031 28.535156 C 52.730469 28.535156 56.535156 32.339844 56.535156 37.113281 C 56.535156 41.804688 52.648438 45.609375 47.957031 45.609375 C 43.261719 45.609375 39.378906 41.804688 39.378906 37.03125 C 39.378906 32.339844 43.183594 28.535156 47.957031 28.535156 Z M 61.308594 64.707031 L 34.605469 64.707031 C 33.390625 64.707031 32.339844 63.65625 32.5 62.441406 C 32.664062 59.769531 33.308594 57.101562 34.199219 54.511719 C 35.496094 50.949219 38.164062 48.28125 41.5625 46.902344 C 43.425781 48.117188 45.691406 48.847656 48.035156 48.847656 C 50.464844 48.847656 52.648438 48.117188 54.511719 46.902344 C 57.828125 48.199219 60.578125 50.949219 61.875 54.511719 C 62.765625 57.019531 63.332031 59.6875 63.574219 62.441406 C 63.574219 63.65625 62.523438 64.707031 61.308594 64.707031 Z M 61.308594 64.707031 " fill-opacity="1" fill-rule="nonzero"/></g></svg>