<svg xmlns="http://www.w3.org/2000/svg" xmlns:xlink="http://www.w3.org/1999/xlink" width="128" zoomAndPan="magnify" viewBox="0 0 96 95.999999" height="128" preserveAspectRatio="xMidYMid meet" version="1.0"><defs><clipPath id="c0a909c71c"><path d="M 9.601562 9.601562 L 86.101562 9.601562 L 86.101562 86.101562 L 9.601562 86.101562 Z M 9.601562 9.601562 " clip-rule="nonzero"/></clipPath></defs><g clip-path="url(#c0a909c71c)"><path fill="#ffffff" d="M 47.996094 9.601562 C 26.824219 9.601562 9.601562 26.824219 9.601562 47.996094 C 9.601562 69.167969 26.824219 86.394531 47.996094 86.394531 C 69.167969 86.394531 86.394531 69.167969 86.394531 47.996094 C 86.394531 26.824219 69.167969 9.601562 47.996094 9.601562 Z M 47.996094 12.246094 C 67.707031 12.246094 83.746094 28.285156 83.746094 47.996094 C 83.746094 67.707031 67.707031 83.746094 47.996094 83.746094 C 28.285156 83.746094 12.246094 67.707031 12.246094 47.996094 C 12.246094 28.285156 28.285156 12.246094 47.996094 12.246094 Z M 47.675781 16.226562 C 42.515625 16.285156 37.410156 17.644531 32.914062 20.210938 C 32.277344 20.574219 32.054688 21.382812 32.417969 22.015625 C 32.664062 22.445312 33.109375 22.683594 33.570312 22.683594 C 33.792969 22.683594 34.019531 22.628906 34.226562 22.511719 C 39.699219 19.386719 46.164062 18.21875 52.414062 19.21875 C 53.136719 19.335938 53.820312 18.84375 53.933594 18.121094 C 54.050781 17.398438 53.554688 16.71875 52.835938 16.601562 C 51.121094 16.328125 49.394531 16.207031 47.675781 16.226562 Z M 58.136719 18.054688 C 57.621094 18.074219 57.144531 18.402344 56.953125 18.914062 C 56.695312 19.601562 57.042969 20.363281 57.730469 20.617188 C 58.675781 20.972656 59.609375 21.378906 60.511719 21.835938 C 60.703125 21.929688 60.90625 21.976562 61.105469 21.976562 C 61.589844 21.976562 62.054688 21.710938 62.289062 21.25 C 62.617188 20.597656 62.355469 19.800781 61.703125 19.46875 C 60.71875 18.972656 59.691406 18.527344 58.65625 18.140625 C 58.484375 18.074219 58.308594 18.046875 58.136719 18.054688 Z M 47.996094 25.488281 C 41.425781 25.488281 36.082031 30.835938 36.082031 37.40625 L 36.082031 41.375 L 33.433594 41.375 C 31.972656 41.375 30.785156 42.5625 30.785156 44.023438 L 30.785156 46.671875 C 30.785156 47.15625 30.925781 47.609375 31.152344 48 C 30.925781 48.390625 30.785156 48.835938 30.785156 49.320312 L 30.785156 51.96875 C 30.785156 52.453125 30.925781 52.902344 31.152344 53.292969 C 30.925781 53.683594 30.785156 54.132812 30.785156 54.617188 L 30.785156 57.265625 C 30.785156 57.746094 30.925781 58.195312 31.152344 58.585938 C 30.925781 58.976562 30.785156 59.429688 30.785156 59.914062 L 30.785156 62.5625 C 30.785156 64.019531 31.972656 65.207031 33.433594 65.207031 L 62.5625 65.207031 C 64.019531 65.207031 65.207031 64.019531 65.207031 62.5625 L 65.207031 59.914062 C 65.207031 59.429688 65.066406 58.976562 64.839844 58.585938 C 65.066406 58.195312 65.207031 57.746094 65.207031 57.265625 L 65.207031 54.617188 C 65.207031 54.132812 65.066406 53.683594 64.839844 53.292969 C 65.066406 52.902344 65.207031 52.453125 65.207031 51.96875 L 65.207031 49.320312 C 65.207031 48.835938 65.066406 48.390625 64.839844 48 C 65.066406 47.609375 65.207031 47.15625 65.207031 46.671875 L 65.207031 44.023438 C 65.207031 42.5625 64.019531 41.375 62.5625 41.375 L 59.914062 41.375 L 59.914062 37.40625 C 59.914062 30.835938 54.566406 25.488281 47.996094 25.488281 Z M 47.996094 28.136719 C 53.105469 28.136719 57.265625 32.292969 57.265625 37.40625 L 57.265625 41.375 L 38.726562 41.375 L 38.726562 37.40625 C 38.726562 32.292969 42.886719 28.136719 47.996094 28.136719 Z M 33.433594 44.023438 L 62.5625 44.023438 L 62.5625 46.671875 L 33.433594 46.671875 Z M 33.433594 49.320312 L 44.023438 49.320312 L 44.023438 51.96875 L 33.433594 51.96875 Z M 46.671875 49.320312 L 49.320312 49.320312 L 49.320312 57.265625 L 46.671875 57.265625 Z M 51.96875 49.320312 L 62.5625 49.320312 L 62.5625 51.96875 L 51.96875 51.96875 Z M 33.433594 54.617188 L 44.023438 54.617188 L 44.023438 57.265625 L 33.433594 57.265625 Z M 51.96875 54.617188 L 62.5625 54.617188 L 62.5625 57.265625 L 51.96875 57.265625 Z M 33.433594 59.914062 L 62.5625 59.914062 L 62.5625 62.5625 L 33.433594 62.5625 Z M 35.25 71.027344 C 34.738281 70.964844 34.214844 71.203125 33.941406 71.679688 L 32.617188 73.972656 C 32.253906 74.605469 32.46875 75.414062 33.101562 75.78125 C 33.308594 75.902344 33.535156 75.957031 33.761719 75.957031 C 34.21875 75.957031 34.664062 75.722656 34.910156 75.296875 L 36.234375 73.003906 C 36.601562 72.371094 36.382812 71.5625 35.75 71.195312 C 35.589844 71.105469 35.421875 71.046875 35.25 71.027344 Z M 60.738281 71.027344 C 60.570312 71.046875 60.402344 71.105469 60.242188 71.195312 C 59.609375 71.5625 59.394531 72.371094 59.761719 73.003906 L 61.085938 75.296875 C 61.332031 75.722656 61.773438 75.957031 62.230469 75.957031 C 62.457031 75.957031 62.683594 75.902344 62.890625 75.78125 C 63.527344 75.417969 63.742188 74.605469 63.375 73.972656 L 62.050781 71.679688 C 61.777344 71.207031 61.25 70.964844 60.738281 71.027344 Z M 54.863281 73.609375 C 54.691406 73.585938 54.511719 73.59375 54.335938 73.640625 C 53.628906 73.832031 53.210938 74.558594 53.398438 75.265625 L 54.085938 77.824219 C 54.242188 78.414062 54.777344 78.804688 55.363281 78.804688 C 55.476562 78.804688 55.59375 78.789062 55.707031 78.757812 C 56.414062 78.570312 56.832031 77.84375 56.644531 77.136719 L 55.957031 74.578125 C 55.816406 74.046875 55.375 73.679688 54.863281 73.609375 Z M 41.132812 73.609375 C 40.621094 73.679688 40.175781 74.046875 40.035156 74.578125 L 39.347656 77.136719 C 39.160156 77.84375 39.578125 78.570312 40.285156 78.757812 C 40.398438 78.789062 40.515625 78.804688 40.628906 78.804688 C 41.214844 78.804688 41.75 78.414062 41.90625 77.824219 L 42.59375 75.265625 C 42.785156 74.558594 42.363281 73.828125 41.660156 73.640625 C 41.480469 73.59375 41.304688 73.585938 41.132812 73.609375 Z M 47.996094 74.476562 C 47.265625 74.476562 46.671875 75.070312 46.671875 75.800781 L 46.671875 78.449219 C 46.671875 79.179688 47.265625 79.773438 47.996094 79.773438 C 48.730469 79.773438 49.320312 79.179688 49.320312 78.449219 L 49.320312 75.800781 C 49.320312 75.070312 48.730469 74.476562 47.996094 74.476562 Z M 47.996094 74.476562 " fill-opacity="1" fill-rule="nonzero"/></g></svg>