<svg xmlns="http://www.w3.org/2000/svg" xmlns:xlink="http://www.w3.org/1999/xlink" width="128" zoomAndPan="magnify" viewBox="0 0 96 95.999999" height="128" preserveAspectRatio="xMidYMid meet" version="1.0"><defs><clipPath id="6fcf870993"><path d="M 9.601562 14.976562 L 86.101562 14.976562 L 86.101562 80.976562 L 9.601562 80.976562 Z M 9.601562 14.976562 " clip-rule="nonzero"/></clipPath></defs><g clip-path="url(#6fcf870993)"><path fill="#ffffff" d="M 85.480469 73.902344 L 51.296875 16.855469 C 50.59375 15.683594 49.359375 14.984375 47.988281 14.984375 C 46.621094 14.984375 45.382812 15.683594 44.683594 16.855469 L 10.5 73.902344 C 9.617188 75.371094 9.59375 77.136719 10.4375 78.625 C 11.28125 80.109375 12.804688 80.996094 14.519531 80.996094 L 81.457031 80.996094 C 83.171875 80.996094 84.699219 80.109375 85.539062 78.625 C 86.382812 77.136719 86.359375 75.371094 85.480469 73.902344 Z M 83.328125 77.371094 C 82.941406 78.046875 82.242188 78.453125 81.457031 78.453125 L 14.519531 78.453125 C 13.734375 78.453125 13.035156 78.046875 12.652344 77.371094 C 12.265625 76.691406 12.277344 75.882812 12.683594 75.207031 L 46.867188 18.164062 C 47.207031 17.59375 47.765625 17.53125 47.988281 17.53125 C 48.210938 17.53125 48.769531 17.59375 49.113281 18.164062 L 83.296875 75.207031 C 83.699219 75.882812 83.710938 76.691406 83.328125 77.371094 Z M 49.082031 22.65625 C 48.851562 22.269531 48.4375 22.035156 47.988281 22.035156 C 47.542969 22.035156 47.128906 22.269531 46.898438 22.65625 L 16.015625 74.191406 C 15.78125 74.585938 15.773438 75.074219 16 75.472656 C 16.226562 75.871094 16.648438 76.117188 17.105469 76.117188 L 78.871094 76.117188 C 79.328125 76.117188 79.753906 75.871094 79.980469 75.472656 C 80.203125 75.074219 80.199219 74.585938 79.964844 74.191406 Z M 19.351562 73.574219 L 47.988281 25.785156 L 76.625 73.574219 Z M 43.144531 38.882812 C 43.144531 38.910156 43.144531 38.9375 43.148438 38.964844 L 44.464844 59.054688 C 44.492188 61.230469 46.242188 62.402344 47.890625 62.402344 C 49.539062 62.402344 51.292969 61.230469 51.316406 59.054688 L 52.636719 38.964844 C 52.636719 38.9375 52.636719 38.910156 52.636719 38.882812 C 52.636719 35.796875 50.25 34.183594 47.890625 34.183594 C 45.53125 34.183594 43.144531 35.796875 43.144531 38.882812 Z M 50.09375 38.84375 L 48.773438 58.925781 C 48.773438 58.953125 48.773438 58.980469 48.773438 59.007812 C 48.773438 59.777344 48.15625 59.859375 47.890625 59.859375 C 47.625 59.859375 47.011719 59.777344 47.011719 59.007812 C 47.011719 58.980469 47.007812 58.953125 47.007812 58.925781 L 45.6875 38.84375 C 45.707031 37.285156 46.882812 36.730469 47.890625 36.730469 C 48.898438 36.730469 50.074219 37.285156 50.09375 38.84375 Z M 47.890625 62.789062 C 45.664062 62.789062 43.847656 64.605469 43.847656 66.832031 C 43.847656 69.0625 45.664062 70.875 47.890625 70.875 C 50.121094 70.875 51.933594 69.0625 51.933594 66.832031 C 51.933594 64.605469 50.121094 62.789062 47.890625 62.789062 Z M 47.890625 68.332031 C 47.066406 68.332031 46.394531 67.660156 46.394531 66.832031 C 46.394531 66.007812 47.066406 65.335938 47.890625 65.335938 C 48.71875 65.335938 49.390625 66.007812 49.390625 66.832031 C 49.390625 67.660156 48.71875 68.332031 47.890625 68.332031 Z M 47.890625 68.332031 " fill-opacity="1" fill-rule="nonzero"/></g></svg>