<svg xmlns="http://www.w3.org/2000/svg" xmlns:xlink="http://www.w3.org/1999/xlink" width="128" zoomAndPan="magnify" viewBox="0 0 96 95.999999" height="128" preserveAspectRatio="xMidYMid meet" version="1.0"><defs><clipPath id="5d8b72456d"><path d="M 9.601562 9.601562 L 86 9.601562 L 86 86 L 9.601562 86 Z M 9.601562 9.601562 " clip-rule="nonzero"/></clipPath></defs><g clip-path="url(#5d8b72456d)"><path fill="#ffffff" d="M 16.285156 38.878906 C 16.285156 26.382812 26.382812 16.285156 38.878906 16.285156 C 51.367188 16.285156 61.472656 26.390625 61.472656 38.878906 C 61.472656 51.367188 51.367188 61.472656 38.878906 61.472656 C 26.382812 61.472656 16.285156 51.367188 16.285156 38.878906 Z M 81.761719 68.546875 L 64.019531 53.910156 C 66.640625 49.535156 68.160156 44.367188 68.160156 38.878906 C 68.230469 22.726562 55.03125 9.601562 38.878906 9.601562 C 22.726562 9.601562 9.601562 22.726562 9.601562 38.878906 C 9.601562 55.03125 22.726562 68.152344 38.878906 68.152344 C 44.367188 68.152344 49.535156 66.640625 53.910156 64.019531 L 68.472656 81.753906 C 72.050781 86.054688 78.492188 86.371094 82.390625 82.398438 C 86.371094 78.5 86.054688 72.058594 81.761719 68.554688 L 81.761719 68.546875 " fill-opacity="1" fill-rule="nonzero"/></g><path fill="#ffffff" d="M 38.960938 22.089844 C 35.132812 22.089844 31.636719 24.316406 30.046875 27.738281 L 29.328125 29.167969 C 29.015625 29.886719 28.933594 30.683594 29.25 31.398438 C 29.492188 32.113281 30.046875 32.753906 30.765625 33.066406 C 32.195312 33.785156 33.945312 33.148438 34.664062 31.636719 L 35.375 30.207031 C 36.015625 28.773438 37.441406 27.898438 38.960938 27.898438 C 40.867188 27.898438 42.535156 29.25 42.851562 31.160156 C 43.011719 32.277344 42.617188 33.230469 41.820312 33.867188 L 37.046875 37.523438 C 36.328125 38.082031 35.851562 38.960938 35.851562 39.832031 L 35.851562 43.335938 C 35.851562 44.925781 37.128906 46.273438 38.796875 46.273438 C 40.390625 46.273438 41.738281 45 41.738281 43.335938 L 41.738281 41.261719 L 45.402344 38.476562 C 47.945312 36.488281 49.21875 33.308594 48.664062 30.128906 C 47.785156 25.511719 43.652344 22.089844 38.960938 22.089844 " fill-opacity="1" fill-rule="nonzero"/><path fill="#ffffff" d="M 42.375 52.078125 C 42.375 54.058594 40.777344 55.664062 38.796875 55.664062 C 36.820312 55.664062 35.214844 54.058594 35.214844 52.078125 C 35.214844 50.105469 36.820312 48.503906 38.796875 48.503906 C 40.777344 48.503906 42.375 50.105469 42.375 52.078125 " fill-opacity="1" fill-rule="nonzero"/></svg>