<?xml version="1.0" encoding="utf-8"?>
<!-- Generator: Adobe Illustrator 29.4.0, SVG Export Plug-In . SVG Version: 9.03 Build 0)  -->
<svg version="1.0" id="Layer_1" xmlns="http://www.w3.org/2000/svg" xmlns:xlink="http://www.w3.org/1999/xlink" x="0px" y="0px"
	 viewBox="0 0 128 128" style="enable-background:new 0 0 128 128;" xml:space="preserve">
<style type="text/css">
	.st0{clip-path:url(#SVGID_00000065780363111603399130000013518123156630885504_);}
	.st1{fill:#FFFFFF;}
	.st2{clip-path:url(#SVGID_00000108993816207294546560000010286188326079556781_);}
</style>
<g>
	<defs>
		<rect id="SVGID_1_" x="12.8" y="12.8" width="102" height="102"/>
	</defs>
	<clipPath id="SVGID_00000105415277949358646330000000947064967885490569_">
		<use xlink:href="#SVGID_1_"  style="overflow:visible;"/>
	</clipPath>
	<g style="clip-path:url(#SVGID_00000105415277949358646330000000947064967885490569_);">
		<path class="st1" d="M54.19,37.98h22.85c0.47,0,0.92-0.2,1.23-0.55c0.31-0.35,0.46-0.82,0.42-1.28
			c-0.52-4.82-3.59-8.79-7.79-10.63c1.34-1.35,2.18-3.21,2.18-5.26c0-4.11-3.34-7.46-7.46-7.46c-4.11,0-7.46,3.34-7.46,7.46
			c0,2.05,0.83,3.91,2.18,5.26c-4.2,1.84-7.27,5.81-7.78,10.63c-0.05,0.46,0.1,0.93,0.41,1.28C53.28,37.78,53.72,37.98,54.19,37.98z
			 M61.46,20.26c0-2.29,1.86-4.16,4.16-4.16c2.29,0,4.16,1.87,4.16,4.16s-1.86,4.16-4.16,4.16C63.32,24.42,61.46,22.55,61.46,20.26z
			 M65.62,27.72c4.41,0,8.18,2.88,9.41,6.95H56.2C57.44,30.6,61.21,27.72,65.62,27.72z M76.17,85.31l-13.31,7.75
			c-0.3,0.18-0.61,0.33-0.92,0.45c0.06-0.17,0.12-0.34,0.17-0.52c0.74-2.78-0.9-5.68-3.74-6.6c-0.07-0.03-0.15-0.04-0.22-0.06
			c-3.79-0.68-7.54-2.04-10.56-3.13c-1.06-0.38-2.06-0.74-2.91-1.02c-3.58-1.16-6.78,0.25-9.43,1.79l-9.49,5.5l-0.7-1.24
			c-0.47-0.84-1.25-1.44-2.18-1.7c-0.93-0.26-1.91-0.14-2.74,0.33l-3.73,2.11c-0.84,0.47-1.44,1.25-1.7,2.18
			c-0.26,0.93-0.14,1.91,0.33,2.74l10.98,19.4c0.47,0.84,1.25,1.44,2.18,1.7c0.32,0.09,0.65,0.14,0.97,0.14
			c0.61,0,1.22-0.16,1.77-0.47l3.73-2.11c0.84-0.47,1.44-1.24,1.7-2.18c0.26-0.93,0.14-1.91-0.33-2.74l-0.91-1.6l1.69-0.97
			l16.86,4.52c0.98,0.26,1.96,0.39,2.92,0.39c1.94,0,3.82-0.53,5.54-1.59l24.16-14.87c2.41-1.48,3.18-5.2,1.62-7.81
			C87.16,84.44,84.09,80.7,76.17,85.31z M33.18,109.49c-0.02,0.06-0.05,0.14-0.14,0.19l-3.73,2.11c-0.09,0.05-0.18,0.05-0.23,0.03
			c-0.06-0.02-0.14-0.06-0.19-0.15l-10.98-19.4c-0.05-0.09-0.04-0.18-0.03-0.23c0.02-0.06,0.05-0.14,0.14-0.19l3.73-2.11
			c0.05-0.03,0.1-0.04,0.15-0.04c0.03,0,0.06,0.01,0.08,0.02c0.06,0.02,0.14,0.05,0.19,0.14l9.28,16.39c0,0.01,0.01,0.01,0.01,0.01
			l1.7,3.01C33.21,109.34,33.2,109.43,33.18,109.49z M84.56,90.69l-24.15,14.88c-1.8,1.11-3.78,1.39-5.88,0.82l-17.52-4.7
			c-0.42-0.11-0.87-0.05-1.25,0.17l-2.26,1.3l-6.12-10.82l9.52-5.51c2.91-1.68,4.86-2.12,6.76-1.51c0.8,0.26,1.73,0.59,2.81,0.98
			c3.1,1.12,6.95,2.52,10.97,3.26c1.14,0.41,1.77,1.51,1.48,2.58c-0.31,1.14-1.17,1.64-2.56,1.48c-1.93-0.4-3.78-0.92-5.73-1.48
			c-0.94-0.27-1.91-0.54-2.9-0.81c-0.88-0.23-1.79,0.29-2.03,1.17c-0.23,0.88,0.29,1.79,1.17,2.02c0.97,0.26,1.93,0.53,2.85,0.8
			c2.04,0.58,3.96,1.13,6.05,1.56c0.01,0.01,0.02,0.01,0.03,0.01c0.01,0.01,0.02,0.01,0.03,0.01l1.66,0.27
			c2.59,0.42,4.89,0.01,7.03-1.23l13.31-7.76c3.53-2.05,6.31-2.35,7.25-0.77C85.71,88.45,85.45,90.15,84.56,90.69z M22.61,93.08
			c0.1,0.73-0.4,1.41-1.12,1.51c-0.73,0.1-1.41-0.4-1.52-1.12c-0.1-0.73,0.4-1.41,1.13-1.52C21.83,91.84,22.51,92.35,22.61,93.08z
			 M38.59,37.43c0.31-0.35,0.46-0.82,0.41-1.28c-0.52-4.82-3.58-8.79-7.78-10.63c1.34-1.35,2.18-3.21,2.18-5.26
			c0-4.11-3.35-7.46-7.46-7.46s-7.46,3.34-7.46,7.46c0,2.05,0.83,3.91,2.18,5.26c-4.2,1.84-7.27,5.81-7.79,10.63
			c-0.05,0.46,0.1,0.93,0.42,1.28c0.31,0.34,0.76,0.55,1.22,0.55h22.85C37.83,37.98,38.28,37.78,38.59,37.43z M25.94,16.1
			c2.3,0,4.16,1.87,4.16,4.16s-1.86,4.16-4.16,4.16c-2.29,0-4.16-1.87-4.16-4.16S23.65,16.1,25.94,16.1z M16.53,34.68
			c1.23-4.07,5.01-6.95,9.41-6.95c4.41,0,8.18,2.88,9.42,6.95H16.53z M65.62,51.26c-0.91,0-1.65-0.74-1.65-1.65v-7.09
			c0-0.91,0.74-1.65,1.65-1.65c0.91,0,1.65,0.74,1.65,1.65v7.09C67.27,50.52,66.53,51.26,65.62,51.26z M39.06,41.35l13.13,13.13
			c0.65,0.65,0.65,1.69,0,2.33c-0.32,0.32-0.74,0.48-1.17,0.48s-0.84-0.16-1.17-0.48L36.73,43.68c-0.65-0.65-0.65-1.69,0-2.33
			C37.38,40.7,38.42,40.7,39.06,41.35z M94.51,41.35c0.65,0.65,0.65,1.69,0,2.33L81.38,56.81c-0.32,0.32-0.74,0.48-1.17,0.48
			s-0.84-0.16-1.17-0.48c-0.65-0.64-0.65-1.69,0-2.33l13.13-13.13C92.82,40.7,93.86,40.7,94.51,41.35z M115.18,36.15
			c-0.52-4.82-3.58-8.79-7.78-10.63c1.34-1.35,2.17-3.21,2.17-5.26c0-4.11-3.34-7.46-7.46-7.46s-7.46,3.34-7.46,7.46
			c0,2.05,0.83,3.91,2.18,5.26c-4.2,1.84-7.27,5.81-7.78,10.63c-0.05,0.46,0.1,0.93,0.41,1.28c0.32,0.34,0.76,0.55,1.23,0.55h22.85
			c0.47,0,0.91-0.2,1.22-0.55C115.08,37.08,115.23,36.61,115.18,36.15z M97.95,20.26c0-2.29,1.87-4.16,4.16-4.16
			s4.16,1.87,4.16,4.16s-1.87,4.16-4.16,4.16S97.95,22.55,97.95,20.26z M92.7,34.68c1.24-4.07,5.01-6.95,9.42-6.95
			s8.18,2.88,9.41,6.95H92.7z"/>
		<g>
			<defs>
				<rect id="SVGID_00000165197492974504214030000007169304521348754876_" x="38.05" y="59.89" width="50.67" height="21.86"/>
			</defs>
			<clipPath id="SVGID_00000112622978589862651340000004866616378395454630_">
				<use xlink:href="#SVGID_00000165197492974504214030000007169304521348754876_"  style="overflow:visible;"/>
			</clipPath>
			<g style="clip-path:url(#SVGID_00000112622978589862651340000004866616378395454630_);">
				<path class="st1" d="M77.29,59.89c-1.02-0.01-2.03,0.14-3.01,0.42c-0.98,0.29-1.9,0.7-2.76,1.26s-1.62,1.21-2.29,1.98
					c-0.67,0.78-1.21,1.62-1.64,2.56H42.63c-0.24,0-0.45,0.08-0.62,0.26l-3.56,3.55c-0.17,0.17-0.26,0.39-0.26,0.63
					c0,0.24,0.09,0.45,0.26,0.62l3.56,3.56c0.17,0.17,0.38,0.26,0.62,0.26h3.56c0.24,0,0.45-0.09,0.62-0.26l2.04-2.04l2.04,2.04
					c0.17,0.17,0.38,0.26,0.62,0.26c0.24,0,0.46-0.09,0.63-0.26l2.04-2.04l2.04,2.04c0.18,0.17,0.39,0.26,0.63,0.26
					s0.45-0.09,0.63-0.26l2.04-2.04l2.04,2.04c0.17,0.17,0.38,0.26,0.62,0.26h5.42c0.27,0.58,0.58,1.12,0.94,1.65
					c0.36,0.52,0.77,1.01,1.22,1.46c0.45,0.45,0.93,0.85,1.46,1.21c0.52,0.36,1.07,0.68,1.65,0.94c0.58,0.27,1.18,0.47,1.79,0.63
					c0.61,0.16,1.24,0.26,1.88,0.3c0.64,0.04,1.27,0.03,1.9-0.04c0.63-0.07,1.25-0.19,1.86-0.38c0.61-0.18,1.2-0.41,1.77-0.7
					c0.57-0.29,1.1-0.62,1.61-1c0.51-0.38,0.98-0.8,1.41-1.27c0.43-0.46,0.82-0.96,1.16-1.5c0.34-0.54,0.64-1.1,0.88-1.68
					c0.24-0.59,0.43-1.19,0.56-1.82c0.14-0.62,0.21-1.25,0.24-1.89c0.02-0.64-0.02-1.27-0.1-1.9c-0.09-0.62-0.24-1.24-0.44-1.85
					c-0.2-0.6-0.46-1.18-0.76-1.74c-0.31-0.56-0.66-1.08-1.06-1.58c-0.4-0.49-0.84-0.95-1.32-1.36c-0.48-0.42-0.99-0.79-1.54-1.11
					c-0.55-0.33-1.12-0.6-1.71-0.82c-0.6-0.22-1.21-0.39-1.83-0.5C78.55,59.94,77.92,59.89,77.29,59.89z M81.73,73.22
					c-0.35,0-0.7-0.07-1.02-0.2c-0.33-0.14-0.61-0.33-0.86-0.58s-0.44-0.54-0.58-0.86c-0.14-0.33-0.2-0.67-0.2-1.02
					c0-0.35,0.07-0.69,0.2-1.02s0.33-0.61,0.58-0.86s0.54-0.44,0.86-0.58c0.32-0.14,0.67-0.2,1.02-0.2c0.35,0,0.69,0.07,1.02,0.2
					c0.33,0.14,0.61,0.33,0.86,0.58s0.44,0.54,0.58,0.86s0.2,0.67,0.2,1.02c0,0.35-0.07,0.69-0.2,1.02
					c-0.14,0.32-0.33,0.61-0.58,0.86s-0.54,0.44-0.86,0.58C82.42,73.15,82.08,73.21,81.73,73.22z"/>
			</g>
		</g>
	</g>
</g>
</svg>
