<svg xmlns="http://www.w3.org/2000/svg" xmlns:xlink="http://www.w3.org/1999/xlink" width="128" zoomAndPan="magnify" viewBox="0 0 96 95.999999" height="128" preserveAspectRatio="xMidYMid meet" version="1.0"><defs><clipPath id="b9f1f90bf6"><path d="M 10.222656 9.601562 L 85.972656 9.601562 L 85.972656 86.101562 L 10.222656 86.101562 Z M 10.222656 9.601562 " clip-rule="nonzero"/></clipPath></defs><g clip-path="url(#b9f1f90bf6)"><path fill="#ffffff" d="M 51.800781 66.929688 L 48.96875 66.929688 C 48.328125 66.929688 47.808594 67.445312 47.808594 68.089844 L 47.808594 74.664062 C 45.925781 74.566406 44.078125 74.214844 42.296875 73.628906 C 36.246094 71.636719 31.3125 66.917969 29.046875 60.960938 C 29.15625 60.160156 29.363281 60.0625 29.480469 60.015625 C 29.523438 59.996094 29.566406 59.976562 29.613281 59.945312 L 32.574219 61.65625 C 35.050781 63.085938 38.039062 60.796875 37.300781 58.03125 C 37.078125 57.191406 36.546875 56.5 35.808594 56.082031 L 27.761719 51.335938 C 28.015625 48.667969 28.75 46.128906 29.960938 43.757812 L 34.65625 46.472656 L 33.816406 47.917969 C 32.542969 50.125 33.304688 52.957031 35.511719 54.234375 C 37.71875 55.515625 40.550781 54.753906 41.828125 52.546875 L 42.664062 51.089844 L 47.808594 54.058594 L 47.808594 61.15625 C 47.808594 61.792969 48.328125 62.320312 48.96875 62.320312 L 51.800781 62.320312 C 53.078125 62.320312 54.109375 63.355469 54.109375 64.625 C 54.105469 65.894531 53.074219 66.929688 51.800781 66.929688 Z M 37.398438 75.160156 C 37.84375 75.414062 39.164062 75.402344 39.894531 75.210938 C 33.867188 72.691406 29.035156 67.671875 26.777344 61.507812 C 26.71875 61.34375 26.695312 61.175781 26.710938 61 C 26.902344 58.910156 27.769531 58.257812 28.503906 57.914062 C 28.519531 57.90625 28.535156 57.894531 28.546875 57.894531 C 29.214844 57.503906 30.007812 57.503906 30.679688 57.886719 L 33.730469 59.652344 C 34.167969 59.90625 34.722656 59.75 34.972656 59.320312 C 35.21875 58.890625 35.082031 58.335938 34.640625 58.082031 L 22.976562 51.207031 L 18.5625 58.851562 L 20.410156 59.917969 C 21.175781 60.355469 21.773438 60.902344 22.289062 61.625 C 27.382812 68.773438 30.085938 70.933594 37.398438 75.160156 Z M 15.6875 59.195312 L 12.921875 57.59375 L 19.03125 47.007812 L 21.800781 48.609375 Z M 21.917969 48.40625 Z M 51.800781 59.996094 L 50.125 59.996094 L 50.125 53.394531 C 50.125 52.976562 49.90625 52.59375 49.546875 52.390625 L 42.820312 48.503906 C 42.265625 48.191406 41.558594 48.375 41.238281 48.933594 L 39.820312 51.382812 C 38.796875 53.15625 36.132812 52.820312 35.597656 50.828125 C 35.4375 50.230469 35.519531 49.605469 35.824219 49.078125 L 37.242188 46.617188 C 37.5625 46.070312 37.371094 45.359375 36.816406 45.035156 L 30.089844 41.160156 C 29.535156 40.835938 28.828125 41.023438 28.507812 41.578125 C 26.980469 44.214844 26 47.058594 25.582031 50.046875 L 24.097656 49.175781 C 24.402344 48.257812 24.03125 47.222656 23.160156 46.714844 L 19.988281 44.890625 C 18.996094 44.3125 17.71875 44.65625 17.144531 45.652344 L 10.796875 56.636719 C 10.21875 57.644531 10.570312 58.910156 11.558594 59.488281 L 14.730469 61.3125 C 15.613281 61.824219 16.71875 61.621094 17.375 60.84375 L 19.25 61.917969 C 19.734375 62.203125 20.078125 62.515625 20.402344 62.972656 C 25.710938 70.425781 28.703125 72.816406 36.242188 77.160156 C 37.714844 78.011719 41.179688 77.875 42.226562 76.332031 C 42.28125 76.253906 42.335938 76.164062 42.394531 76.089844 C 44.519531 76.703125 46.726562 77.015625 48.96875 77.015625 C 49.605469 77.015625 50.125 76.5 50.125 75.855469 L 50.125 69.242188 L 51.800781 69.242188 C 54.351562 69.242188 56.425781 67.171875 56.425781 64.625 C 56.425781 62.070312 54.347656 59.996094 51.800781 59.996094 Z M 41.042969 29.734375 C 39.644531 30.984375 38.417969 32.410156 37.390625 33.992188 L 43.085938 37.28125 C 43.644531 37.597656 43.824219 38.316406 43.507812 38.863281 L 42.089844 41.316406 C 41.457031 42.417969 41.835938 43.835938 42.9375 44.46875 C 44.035156 45.101562 45.453125 44.722656 46.089844 43.621094 L 47.503906 41.167969 C 47.824219 40.613281 48.535156 40.425781 49.085938 40.75 L 55.234375 44.292969 L 60.375 41.324219 L 59.539062 39.871094 C 58.261719 37.664062 59.023438 34.832031 61.230469 33.550781 C 63.414062 32.289062 66.261719 33.03125 67.546875 35.25 L 68.386719 36.695312 L 73.082031 33.992188 C 71.632812 31.753906 69.796875 29.851562 67.617188 28.296875 L 59.488281 32.898438 C 57.929688 33.777344 55.984375 33.257812 55.089844 31.707031 C 54.199219 30.164062 54.734375 28.191406 56.269531 27.300781 L 59.230469 25.59375 C 59.234375 25.535156 59.238281 25.488281 59.242188 25.449219 C 59.253906 25.320312 59.273438 25.085938 58.636719 24.597656 C 52.582031 23.621094 46.28125 25.359375 41.578125 29.273438 Z M 42.167969 24.734375 C 49.480469 20.507812 52.703125 19.246094 61.441406 18.40625 C 62.324219 18.328125 63.09375 18.085938 63.863281 17.636719 L 65.707031 16.570312 L 70.121094 24.21875 L 58.335938 30.886719 C 57.902344 31.132812 57.34375 30.984375 57.09375 30.554688 C 56.84375 30.117188 56.996094 29.558594 57.429688 29.304688 L 60.484375 27.546875 C 61.152344 27.15625 61.546875 26.472656 61.542969 25.703125 C 61.542969 25.683594 61.546875 25.664062 61.546875 25.652344 C 61.621094 24.84375 61.480469 23.757812 59.769531 22.546875 C 59.625 22.449219 59.46875 22.390625 59.296875 22.351562 C 52.828125 21.230469 46.074219 22.910156 40.878906 26.875 C 41.070312 26.132812 41.722656 24.988281 42.167969 24.734375 Z M 69.617188 12.3125 L 75.726562 22.898438 L 72.960938 24.5 L 66.847656 13.914062 Z M 35.199219 35.40625 L 40.921875 38.707031 L 40.085938 40.164062 C 38.285156 43.285156 40.605469 47.097656 44.074219 47.097656 C 45.722656 47.097656 47.265625 46.210938 48.09375 44.78125 L 48.933594 43.335938 L 54.65625 46.636719 C 55.011719 46.84375 55.453125 46.84375 55.8125 46.636719 L 62.539062 42.75 C 63.089844 42.429688 63.28125 41.726562 62.960938 41.167969 L 61.546875 38.71875 C 60.910156 37.613281 61.289062 36.199219 62.390625 35.566406 C 63.492188 34.929688 64.902344 35.3125 65.539062 36.402344 L 66.957031 38.863281 C 67.277344 39.421875 67.984375 39.605469 68.539062 39.285156 L 75.269531 35.398438 C 75.820312 35.085938 76.011719 34.375 75.695312 33.816406 C 74.171875 31.179688 72.199219 28.914062 69.820312 27.050781 L 71.324219 26.199219 C 71.984375 26.945312 73.046875 27.117188 73.917969 26.621094 L 77.089844 24.792969 C 78.082031 24.21875 78.425781 22.9375 77.851562 21.941406 L 71.503906 10.957031 C 70.933594 9.960938 69.65625 9.621094 68.660156 10.1875 L 65.488281 12.023438 C 64.597656 12.539062 64.230469 13.613281 64.578125 14.550781 L 62.703125 15.632812 C 62.21875 15.90625 61.777344 16.054688 61.21875 16.101562 C 52.113281 16.972656 48.546875 18.378906 41.007812 22.722656 C 39.574219 23.554688 37.910156 26.628906 38.738281 28.328125 C 38.78125 28.417969 38.824219 28.503906 38.867188 28.59375 C 37.273438 30.125 35.898438 31.882812 34.777344 33.824219 C 34.457031 34.371094 34.648438 35.085938 35.199219 35.40625 Z M 80.484375 84.054688 L 68.257812 84.054688 L 68.257812 80.863281 L 80.484375 80.863281 Z M 59.980469 76.214844 L 59.980469 70.796875 L 61.652344 70.796875 C 64.203125 70.796875 66.277344 68.714844 66.277344 66.167969 C 66.277344 63.617188 64.203125 61.546875 61.652344 61.546875 L 59.980469 61.546875 L 59.980469 55.609375 L 66.125 52.058594 C 66.683594 51.742188 66.863281 51.023438 66.546875 50.476562 L 65.132812 48.023438 C 64.121094 46.285156 65.710938 44.101562 67.726562 44.644531 C 68.324219 44.800781 68.820312 45.183594 69.128906 45.71875 L 70.542969 48.171875 C 70.863281 48.726562 71.574219 48.914062 72.128906 48.589844 L 77.820312 45.308594 C 78.710938 47.058594 79.347656 48.902344 79.726562 50.828125 C 80.941406 56.988281 79.308594 63.53125 75.335938 68.402344 C 74.59375 68.707031 74.402344 68.578125 74.296875 68.5 C 74.261719 68.480469 74.222656 68.453125 74.175781 68.421875 L 74.175781 65.003906 C 74.175781 63.21875 72.730469 61.773438 70.949219 61.773438 C 69.171875 61.773438 67.722656 63.21875 67.722656 64.996094 L 67.640625 74.328125 C 65.207031 75.445312 62.636719 76.078125 59.980469 76.214844 Z M 82.246094 51.890625 C 83.078125 58.363281 81.15625 65.0625 76.941406 70.09375 C 76.832031 70.230469 76.695312 70.335938 76.539062 70.40625 C 74.636719 71.285156 73.628906 70.863281 72.96875 70.40625 C 72.953125 70.386719 72.941406 70.375 72.929688 70.375 C 72.257812 69.984375 71.859375 69.300781 71.859375 68.53125 L 71.859375 65.003906 C 71.859375 64.496094 71.449219 64.097656 70.949219 64.097656 C 70.449219 64.097656 70.039062 64.496094 70.039062 65.003906 L 69.921875 78.539062 L 78.75 78.539062 L 78.75 76.410156 C 78.75 75.523438 78.921875 74.730469 79.289062 73.921875 C 82.933594 65.941406 83.453125 62.515625 83.453125 54.070312 C 83.453125 53.5625 82.785156 52.417969 82.246094 51.890625 Z M 81.066406 78.578125 C 82.046875 78.742188 82.800781 79.59375 82.800781 80.628906 L 82.800781 84.289062 C 82.800781 85.433594 81.867188 86.371094 80.71875 86.371094 L 68.027344 86.371094 C 66.878906 86.371094 65.941406 85.433594 65.941406 84.289062 L 65.941406 80.628906 C 65.941406 79.621094 66.65625 78.78125 67.601562 78.585938 L 67.617188 76.859375 C 64.824219 77.992188 61.882812 78.566406 58.84375 78.566406 C 58.1875 78.566406 57.660156 78.046875 57.660156 77.40625 L 57.660156 69.632812 C 57.660156 69 58.179688 68.480469 58.820312 68.480469 L 61.652344 68.480469 C 62.925781 68.480469 63.960938 67.445312 63.960938 66.167969 C 63.960938 64.898438 62.925781 63.863281 61.652344 63.863281 L 58.820312 63.863281 C 58.179688 63.863281 57.660156 63.34375 57.660156 62.699219 L 57.660156 54.9375 C 57.660156 54.527344 57.882812 54.144531 58.242188 53.929688 L 63.960938 50.628906 L 63.125 49.175781 C 61.851562 46.972656 62.609375 44.140625 64.816406 42.867188 C 67.023438 41.59375 69.859375 42.347656 71.132812 44.558594 L 71.972656 46.011719 L 77.695312 42.703125 C 78.246094 42.378906 78.957031 42.574219 79.277344 43.132812 C 80.398438 45.066406 81.230469 47.136719 81.761719 49.28125 C 81.859375 49.292969 81.957031 49.300781 82.054688 49.300781 C 83.933594 49.4375 85.769531 52.417969 85.769531 54.066406 C 85.769531 62.777344 85.195312 66.566406 81.398438 74.886719 C 81.164062 75.394531 81.066406 75.851562 81.066406 76.410156 Z M 81.066406 78.578125 " fill-opacity="1" fill-rule="evenodd"/></g></svg>